<svg width="39" height="26" viewBox="0 0 39 26" fill="none" xmlns="http://www.w3.org/2000/svg">
<g clip-path="url(#clip0_363_6689)">
<path d="M36.4 26H2.6C1.91044 26 1.24912 25.7261 0.761522 25.2385C0.273928 24.7509 0 24.0896 0 23.4L0 12.4627H1.87308L2.29558 11.44H3.24133L3.66275 12.4584H7.34825V11.6838L7.67758 12.4638H9.59075L9.92008 11.6708V12.4616H19.0775V10.7889H19.2508C19.3743 10.7933 19.4101 10.8041 19.4101 11.0099V12.4638H24.1475V12.0749C24.6318 12.3208 25.2027 12.4649 25.8082 12.4649L25.9112 12.4638H25.9057H27.8991L28.3259 11.4454H29.2717L29.6887 12.4638H33.5302V11.4953L34.1109 12.4638H37.1833V6.06778H34.1423V6.82286L33.7166 6.06778H30.5901V6.82286L30.199 6.06778H25.9772C25.3376 6.03546 24.7003 6.16709 24.1258 6.4502L24.1486 6.44045V6.06778H21.2366V6.44045C20.8841 6.16263 20.4389 6.02973 19.9918 6.06886H19.9983H9.35675L8.64283 7.72095L7.90942 6.06886H4.55758V6.82395L4.18817 6.06886H1.32817L0.00325 9.1022V2.6022C0.00325 1.91263 0.277178 1.25131 0.764772 0.76372C1.25237 0.276125 1.91369 0.00219727 2.60325 0.00219727H36.4032C37.0928 0.00219727 37.7541 0.276125 38.2417 0.76372C38.7293 1.25131 39.0032 1.91263 39.0032 2.6022V13.9555H36.9742C36.9417 13.9534 36.9027 13.9534 36.8647 13.9534C36.3946 13.9534 35.958 14.0942 35.594 14.3358L35.6027 14.3304V13.9555H32.6018C32.133 13.9296 31.6692 14.0629 31.2856 14.3336L31.2921 14.3293V13.9544H25.9339V14.3293C25.4953 14.0819 24.9999 13.9527 24.4963 13.9544H24.4541H24.4562H20.9213V14.3293C20.4595 14.0334 19.9115 13.9018 19.3657 13.9555L19.3754 13.9544H15.4202L14.5145 14.9338L13.6673 13.9544H7.75883V20.3548H13.5568L14.4896 19.3603L15.3682 20.3548H18.9421V18.8565H19.4404C19.9196 18.8753 20.3975 18.7952 20.8444 18.6214L20.8206 18.6301V20.3569H23.7672V18.6897H23.9092C24.089 18.6897 24.1074 18.6962 24.1074 18.8782V20.358H33.0622L33.1717 20.3602C33.6852 20.3602 34.164 20.2064 34.5627 19.9431L34.5529 19.9485V20.358H37.3934L37.5288 20.3602C38.0607 20.3602 38.5667 20.2508 39.026 20.0525L39.0011 20.0623V23.4011C39.0011 24.0907 38.7272 24.752 38.2396 25.2396C37.752 25.7272 37.0906 26.0011 36.4011 26.0011L36.4 26ZM22.8637 19.4578H21.7609V14.8699H24.2916C24.7486 14.8275 25.2089 14.9044 25.6273 15.093L25.61 15.0865C25.9491 15.2729 26.1755 15.6282 26.1755 16.0355L26.1733 16.1081V16.1049L26.1744 16.146C26.1744 16.6725 25.857 17.1254 25.402 17.3225L25.3933 17.3258C25.6111 17.4038 25.7931 17.537 25.9285 17.7093L25.9307 17.7114C26.0836 17.9646 26.1477 18.2616 26.1127 18.5554L26.1137 18.5489V19.4567H25.0131V18.8825C25.0652 18.5699 25.0025 18.249 24.8365 17.979L24.8397 17.9844C24.7254 17.8976 24.5946 17.8349 24.4553 17.8001C24.3161 17.7653 24.1712 17.7591 24.0294 17.7819L24.0359 17.7808H22.8637V19.4567V19.4578ZM22.8637 15.8178V16.848H24.1962C24.3844 16.8654 24.5738 16.8317 24.7444 16.7505L24.7379 16.7538C24.8076 16.7088 24.865 16.647 24.9047 16.5742C24.9444 16.5013 24.9653 16.4197 24.9654 16.3367L24.9643 16.3118V16.3129C24.9697 16.2301 24.9515 16.1474 24.9118 16.0746C24.8721 16.0017 24.8126 15.9416 24.7401 15.9012L24.7379 15.9001C24.5735 15.8266 24.3929 15.7967 24.2136 15.8134H24.2179L22.8637 15.8178ZM13.0867 19.4567H8.74575V14.8699H13.1549L14.5037 16.3735L15.8979 14.8699H19.4003C20.644 14.8699 21.2485 15.3649 21.2485 16.3811C21.2485 17.4157 20.6234 17.9184 19.3418 17.9184H17.9714V19.4556H15.8405L14.4907 17.94L13.0877 19.4567H13.0867ZM16.8794 15.3617L15.1959 17.1709L16.8794 19.0385V15.3617ZM9.83883 17.5879V18.5001H12.5342L13.78 17.1546L12.5818 15.8178H9.83775V16.6519H12.2449V17.5869L9.83883 17.5879ZM17.9714 15.8189V16.9867H19.3873C19.8207 16.9867 20.0698 16.7657 20.0698 16.38C20.0698 16.0117 19.838 15.8178 19.3992 15.8178L17.9714 15.8189ZM37.5126 19.4589H35.3957V18.473H37.5039C37.6617 18.4948 37.8216 18.4535 37.9492 18.3582L37.9481 18.3593C37.9888 18.3215 38.0212 18.2758 38.0434 18.2249C38.0656 18.174 38.077 18.119 38.077 18.0635V18.0603V18.0462C38.0771 17.9914 38.0652 17.9372 38.0422 17.8874C38.0192 17.8376 37.9856 17.7935 37.9437 17.758C37.8316 17.677 37.6934 17.6407 37.5559 17.6562H37.5581L37.3555 17.6497C36.3653 17.6237 35.2441 17.5934 35.2441 16.2359C35.2441 15.5751 35.6579 14.8699 36.816 14.8699H39.0011V15.847H37.0023C36.8479 15.8297 36.692 15.8608 36.556 15.9359L36.5603 15.9337C36.5068 15.9689 36.4638 16.0179 36.4358 16.0754C36.4078 16.133 36.3958 16.1971 36.4011 16.2609V16.2598V16.2717C36.4011 16.3447 36.4241 16.4158 36.4669 16.475C36.5097 16.5341 36.5701 16.5782 36.6394 16.601L36.6416 16.6021C36.7789 16.6445 36.9227 16.6621 37.0662 16.6541H37.063L37.6577 16.6693C38.1061 16.6245 38.554 16.758 38.9047 17.0409L38.9014 17.0387C38.9339 17.0647 38.9621 17.0929 38.987 17.1243L38.9881 17.1254L39.0011 18.8717C38.8189 19.0846 38.5871 19.2494 38.3262 19.3516C38.0653 19.4538 37.7833 19.4903 37.505 19.4578L37.5126 19.4589ZM33.2345 19.4589H31.0982V18.473H33.2237C33.3827 18.4939 33.5437 18.4527 33.6732 18.3582L33.6711 18.3593C33.7115 18.3214 33.7438 18.2756 33.7658 18.2247C33.7877 18.1738 33.799 18.119 33.7989 18.0635V18.0603V18.0527C33.7989 17.9969 33.787 17.9418 33.764 17.891C33.741 17.8402 33.7075 17.7949 33.6657 17.758C33.5515 17.6769 33.4116 17.6407 33.2724 17.6562H33.2746L33.0731 17.6497C32.0862 17.6237 30.966 17.5934 30.966 16.2359C30.966 15.5751 31.3777 14.8699 32.5336 14.8699H34.7306V15.847H32.7199C32.5666 15.8299 32.4117 15.861 32.2768 15.9359L32.2812 15.9337C32.2243 15.9729 32.179 16.0267 32.1501 16.0894C32.1213 16.1522 32.1099 16.2216 32.1172 16.2903C32.1246 16.359 32.1503 16.4244 32.1917 16.4797C32.2332 16.5349 32.2888 16.578 32.3527 16.6043L32.3548 16.6054C32.494 16.648 32.6396 16.6656 32.7849 16.6574H32.7817L33.3721 16.6725C33.8228 16.6291 34.2727 16.7628 34.6266 17.0452L34.6233 17.0419C34.7424 17.1732 34.8329 17.3277 34.8892 17.4957C34.9455 17.6637 34.9664 17.8416 34.9505 18.018V18.0126C34.9537 18.9692 34.3742 19.4567 33.2312 19.4567L33.2345 19.4589ZM30.4417 19.4589H26.78V14.8688H30.4384V15.8167H27.8742V16.6509H30.3788V17.5858H27.8742V18.4979L30.4417 18.5023V19.4556V19.4589ZM32.5758 11.5657H30.3431L29.9162 10.543H27.6391L27.2252 11.5657H25.9426C25.3666 11.5961 24.7993 11.4146 24.3479 11.0554L24.3533 11.0587C24.1389 10.822 23.9761 10.5432 23.8754 10.2401C23.7747 9.93702 23.7382 9.61625 23.7683 9.29828L23.7672 9.30695C23.7394 8.98312 23.7776 8.657 23.8797 8.34841C23.9817 8.03982 24.1454 7.75521 24.3609 7.51186L24.3587 7.51403C24.5862 7.31511 24.8522 7.16514 25.1402 7.07344C25.4281 6.98175 25.7319 6.95029 26.0325 6.98103L26.0238 6.97995H27.0855V7.9582H26.0455C25.8933 7.93859 25.7387 7.9528 25.5926 7.9998C25.4466 8.0468 25.3127 8.12544 25.2005 8.23011L25.2016 8.22903C24.97 8.52565 24.8575 8.89812 24.8863 9.27336V9.26795C24.8518 9.65347 24.9601 10.0382 25.1907 10.3491L25.1875 10.3448C25.4029 10.5208 25.6785 10.6055 25.9556 10.5809H25.9512H26.4431L27.9933 6.97345H29.64L31.4957 11.3068V6.97345H33.1652L35.0913 10.1671V6.97345H36.218V11.5581H34.6537L32.5737 8.11528V11.5581L32.5758 11.5657ZM28.7852 7.75453L28.0302 9.5832H29.5436L28.7852 7.75453ZM18.1697 11.5635H17.0733V6.9767H19.5953C20.0557 6.92893 20.5204 7.00719 20.9397 7.20311L20.9235 7.19661C21.0921 7.28985 21.2327 7.42654 21.3306 7.59247C21.4285 7.7584 21.4802 7.94753 21.4803 8.1402L21.4782 8.21603V8.21278V8.24636C21.4782 8.49656 21.4061 8.74147 21.2705 8.9517C21.1348 9.16192 20.9413 9.32853 20.7133 9.43153L20.7047 9.43478C20.9224 9.51711 21.1055 9.64928 21.2452 9.81828L21.2474 9.82045C21.402 10.0746 21.4658 10.3736 21.4283 10.6687L21.4294 10.6622V11.5624H20.3233L20.319 10.9839V10.8973C20.3584 10.6144 20.2958 10.3268 20.1424 10.0859L20.1457 10.0913C20.0309 10.007 19.9006 9.94626 19.7623 9.9126C19.6239 9.87895 19.4803 9.87303 19.3397 9.8952L19.3462 9.89411H18.1707V11.5624L18.1697 11.5635ZM18.1697 7.93111V8.94945H19.5C19.6879 8.96983 19.8778 8.936 20.0471 8.85195L20.0417 8.85411C20.1111 8.81193 20.1684 8.7526 20.2083 8.68183C20.2481 8.61107 20.2691 8.53124 20.2692 8.45003L20.2681 8.4197V8.42078C20.2736 8.33846 20.2549 8.25634 20.2143 8.18453C20.1736 8.11272 20.1129 8.05438 20.0395 8.0167L20.0373 8.01561C19.8725 7.94488 19.6929 7.91515 19.5141 7.92895H19.5173L18.1697 7.93111ZM6.56067 11.5635H4.33333L3.91192 10.5409H1.62825L1.20358 11.5635H0.0119167L1.976 6.9767H3.60425L5.46867 11.3176V6.9767H7.25725L8.69158 10.0869L10.01 6.9767H11.8354V11.5614H10.7087L10.7066 7.97336L9.11733 11.5624H8.15533L6.56175 7.96795V11.5624L6.56067 11.5635ZM2.76467 7.75453L2.01825 9.5832H3.51542L2.76467 7.75453ZM23.2267 11.5624H22.1087V6.9767H23.2277V11.5614L23.2267 11.5624ZM16.3085 11.5624H12.6533V6.9767H16.315V7.93003H13.7497V8.75661H16.2532V9.69803H13.7475V10.6145H16.3128V11.5614L16.3085 11.5624Z" fill="white"/>
</g>
<defs>
<clipPath id="clip0_363_6689">
<rect width="39" height="26" fill="white"/>
</clipPath>
</defs>
</svg>
