<svg width="44" height="44" viewBox="0 0 44 44" fill="none" xmlns="http://www.w3.org/2000/svg">
<circle cx="22.0003" cy="22" r="18.3333" fill="#38D8C4"/>
<circle cx="22.0003" cy="22" r="18.3333" fill="#38D8C4"/>
<path d="M22 12.982C24.9371 12.982 25.285 12.9932 26.4449 13.0461C27.5174 13.095 28.0999 13.2742 28.4875 13.4249C29.0009 13.6244 29.3674 13.8628 29.7523 14.2477C30.1372 14.6326 30.3756 14.999 30.5751 15.5125C30.7258 15.9001 30.905 16.4825 30.9539 17.555C31.0068 18.7149 31.018 19.0629 31.018 21.9999C31.018 24.9371 31.0068 25.285 30.9539 26.4449C30.905 27.5174 30.7258 28.0998 30.5751 28.4874C30.3756 29.0009 30.1372 29.3673 29.7523 29.7522C29.3674 30.1372 29.0009 30.3755 28.4875 30.5751C28.0999 30.7257 27.5174 30.9049 26.4449 30.9538C25.2852 31.0067 24.9373 31.018 22 31.018C19.0627 31.018 18.7148 31.0067 17.5551 30.9538C16.4826 30.9049 15.9001 30.7257 15.5125 30.5751C14.9991 30.3755 14.6326 30.1372 14.2477 29.7522C13.8628 29.3673 13.6244 29.0009 13.4249 28.4874C13.2742 28.0998 13.095 27.5174 13.0461 26.4449C12.9932 25.285 12.982 24.9371 12.982 21.9999C12.982 19.0629 12.9932 18.7149 13.0461 17.555C13.095 16.4825 13.2742 15.9001 13.4249 15.5125C13.6244 14.999 13.8628 14.6326 14.2477 14.2477C14.6326 13.8628 14.9991 13.6244 15.5125 13.4249C15.9001 13.2742 16.4826 13.095 17.5551 13.0461C18.715 12.9932 19.0629 12.982 22 12.982ZM22 11C19.0126 11 18.638 11.0127 17.4647 11.0662C16.2939 11.1196 15.4943 11.3056 14.7946 11.5775C14.0712 11.8586 13.4578 12.2347 12.8462 12.8462C12.2347 13.4578 11.8586 14.0712 11.5775 14.7946C11.3056 15.4942 11.1196 16.2939 11.0662 17.4647C11.0127 18.638 11 19.0126 11 21.9999C11 24.9874 11.0127 25.362 11.0662 26.5352C11.1196 27.706 11.3056 28.5057 11.5775 29.2054C11.8586 29.9287 12.2347 30.5421 12.8462 31.1537C13.4578 31.7652 14.0712 32.1413 14.7946 32.4224C15.4943 32.6944 16.2939 32.8803 17.4647 32.9337C18.638 32.9873 19.0126 32.9999 22 32.9999C24.9874 32.9999 25.362 32.9873 26.5353 32.9337C27.7061 32.8803 28.5057 32.6944 29.2054 32.4224C29.9288 32.1413 30.5422 31.7652 31.1538 31.1537C31.7653 30.5421 32.1414 29.9287 32.4225 29.2054C32.6944 28.5057 32.8804 27.706 32.9338 26.5352C32.9873 25.362 33 24.9874 33 21.9999C33 19.0126 32.9873 18.638 32.9338 17.4647C32.8804 16.2939 32.6944 15.4942 32.4225 14.7946C32.1414 14.0712 31.7653 13.4578 31.1538 12.8462C30.5422 12.2347 29.9288 11.8586 29.2054 11.5775C28.5057 11.3056 27.7061 11.1196 26.5353 11.0662C25.362 11.0127 24.9874 11 22 11Z" fill="black"/>
<path d="M22.0051 16.3564C18.8854 16.3564 16.3564 18.8854 16.3564 22.005C16.3564 25.1247 18.8854 27.6537 22.0051 27.6537C25.1248 27.6537 27.6537 25.1247 27.6537 22.005C27.6537 18.8854 25.1248 16.3564 22.0051 16.3564ZM22.0051 25.6717C19.98 25.6717 18.3384 24.0301 18.3384 22.005C18.3384 19.98 19.98 18.3384 22.0051 18.3384C24.0301 18.3384 25.6718 19.98 25.6718 22.005C25.6718 24.0301 24.0301 25.6717 22.0051 25.6717Z" fill="black"/>
<path d="M29.1966 16.1298C29.1966 16.8588 28.6056 17.4498 27.8766 17.4498C27.1476 17.4498 26.5566 16.8588 26.5566 16.1298C26.5566 15.4008 27.1476 14.8098 27.8766 14.8098C28.6056 14.8098 29.1966 15.4008 29.1966 16.1298Z" fill="black"/>
<path d="M22 12.982C24.9371 12.982 25.285 12.9932 26.4449 13.0461C27.5174 13.095 28.0999 13.2742 28.4875 13.4249C29.0009 13.6244 29.3674 13.8628 29.7523 14.2477C30.1372 14.6326 30.3756 14.999 30.5751 15.5125C30.7258 15.9001 30.905 16.4825 30.9539 17.555C31.0068 18.7149 31.018 19.0629 31.018 21.9999C31.018 24.9371 31.0068 25.285 30.9539 26.4449C30.905 27.5174 30.7258 28.0998 30.5751 28.4874C30.3756 29.0009 30.1372 29.3673 29.7523 29.7522C29.3674 30.1372 29.0009 30.3755 28.4875 30.5751C28.0999 30.7257 27.5174 30.9049 26.4449 30.9538C25.2852 31.0067 24.9373 31.018 22 31.018C19.0627 31.018 18.7148 31.0067 17.5551 30.9538C16.4826 30.9049 15.9001 30.7257 15.5125 30.5751C14.9991 30.3755 14.6326 30.1372 14.2477 29.7522C13.8628 29.3673 13.6244 29.0009 13.4249 28.4874C13.2742 28.0998 13.095 27.5174 13.0461 26.4449C12.9932 25.285 12.982 24.9371 12.982 21.9999C12.982 19.0629 12.9932 18.7149 13.0461 17.555C13.095 16.4825 13.2742 15.9001 13.4249 15.5125C13.6244 14.999 13.8628 14.6326 14.2477 14.2477C14.6326 13.8628 14.9991 13.6244 15.5125 13.4249C15.9001 13.2742 16.4826 13.095 17.5551 13.0461C18.715 12.9932 19.0629 12.982 22 12.982ZM22 11C19.0126 11 18.638 11.0127 17.4647 11.0662C16.2939 11.1196 15.4943 11.3056 14.7946 11.5775C14.0712 11.8586 13.4578 12.2347 12.8462 12.8462C12.2347 13.4578 11.8586 14.0712 11.5775 14.7946C11.3056 15.4942 11.1196 16.2939 11.0662 17.4647C11.0127 18.638 11 19.0126 11 21.9999C11 24.9874 11.0127 25.362 11.0662 26.5352C11.1196 27.706 11.3056 28.5057 11.5775 29.2054C11.8586 29.9287 12.2347 30.5421 12.8462 31.1537C13.4578 31.7652 14.0712 32.1413 14.7946 32.4224C15.4943 32.6944 16.2939 32.8803 17.4647 32.9337C18.638 32.9873 19.0126 32.9999 22 32.9999C24.9874 32.9999 25.362 32.9873 26.5353 32.9337C27.7061 32.8803 28.5057 32.6944 29.2054 32.4224C29.9288 32.1413 30.5422 31.7652 31.1538 31.1537C31.7653 30.5421 32.1414 29.9287 32.4225 29.2054C32.6944 28.5057 32.8804 27.706 32.9338 26.5352C32.9873 25.362 33 24.9874 33 21.9999C33 19.0126 32.9873 18.638 32.9338 17.4647C32.8804 16.2939 32.6944 15.4942 32.4225 14.7946C32.1414 14.0712 31.7653 13.4578 31.1538 12.8462C30.5422 12.2347 29.9288 11.8586 29.2054 11.5775C28.5057 11.3056 27.7061 11.1196 26.5353 11.0662C25.362 11.0127 24.9874 11 22 11Z" fill="black"/>
<path d="M22.0051 16.3564C18.8854 16.3564 16.3564 18.8854 16.3564 22.005C16.3564 25.1247 18.8854 27.6537 22.0051 27.6537C25.1248 27.6537 27.6537 25.1247 27.6537 22.005C27.6537 18.8854 25.1248 16.3564 22.0051 16.3564ZM22.0051 25.6717C19.98 25.6717 18.3384 24.0301 18.3384 22.005C18.3384 19.98 19.98 18.3384 22.0051 18.3384C24.0301 18.3384 25.6718 19.98 25.6718 22.005C25.6718 24.0301 24.0301 25.6717 22.0051 25.6717Z" fill="black"/>
<path d="M29.1966 16.1298C29.1966 16.8588 28.6056 17.4498 27.8766 17.4498C27.1476 17.4498 26.5566 16.8588 26.5566 16.1298C26.5566 15.4008 27.1476 14.8098 27.8766 14.8098C28.6056 14.8098 29.1966 15.4008 29.1966 16.1298Z" fill="black"/>
</svg>
