<svg width="27" height="20" viewBox="0 0 27 20" fill="none" xmlns="http://www.w3.org/2000/svg">
<path d="M4.9087 19.9007V18.577C4.9087 18.0695 4.58448 17.7386 4.02877 17.7386C3.75096 17.7386 3.44996 17.8268 3.24155 18.1137C3.07955 17.871 2.84805 17.7386 2.50074 17.7386C2.26913 17.7386 2.03773 17.8047 1.85242 18.0475V17.7827H1.36621V19.9007H1.85242V18.7314C1.85242 18.3564 2.06083 18.1798 2.38504 18.1798C2.70904 18.1798 2.87125 18.3784 2.87125 18.7314V19.9007H3.35746V18.7314C3.35746 18.3564 3.58886 18.1798 3.88987 18.1798C4.21408 18.1798 4.37608 18.3784 4.37608 18.7314V19.9007H4.9087ZM12.1092 17.7827H11.322V17.1429H10.8358V17.7827H10.3959V18.2018H10.8357V19.1727C10.8357 19.6581 11.0441 19.9448 11.5998 19.9448C11.8082 19.9448 12.0396 19.8787 12.2019 19.7905L12.0629 19.3933C11.9239 19.4815 11.7619 19.5036 11.6461 19.5036C11.4146 19.5036 11.322 19.3713 11.322 19.1506V18.2018H12.1092V17.7827ZM16.2304 17.7385C15.9526 17.7385 15.7674 17.871 15.6516 18.0475V17.7827H15.1654V19.9007H15.6516V18.7094C15.6516 18.3564 15.8136 18.1578 16.1146 18.1578C16.2072 18.1578 16.3231 18.1799 16.4157 18.2019L16.5546 17.7607C16.462 17.7386 16.323 17.7386 16.2304 17.7386V17.7385ZM10.0023 17.9592C9.7707 17.8047 9.44659 17.7386 9.09928 17.7386C8.54367 17.7386 8.17327 18.0033 8.17327 18.4225C8.17327 18.7756 8.45107 18.9741 8.93728 19.0403L9.16879 19.0624C9.4235 19.1064 9.5624 19.1727 9.5624 19.283C9.5624 19.4374 9.3772 19.5477 9.05298 19.5477C8.72888 19.5477 8.47417 19.4374 8.31207 19.3271L8.08056 19.6801C8.33527 19.8566 8.68258 19.9448 9.02978 19.9448C9.6781 19.9448 10.0486 19.6581 10.0486 19.2609C10.0486 18.8858 9.7476 18.6872 9.28449 18.6211L9.05298 18.599C8.84458 18.5769 8.68258 18.5329 8.68258 18.4005C8.68258 18.246 8.84458 18.1578 9.09928 18.1578C9.37719 18.1578 9.655 18.2681 9.7939 18.3343L10.0023 17.9592ZM22.9217 17.7386C22.6438 17.7386 22.4586 17.871 22.3428 18.0475V17.7827H21.8566V19.9007H22.3428V18.7094C22.3428 18.3564 22.5049 18.1578 22.8058 18.1578C22.8985 18.1578 23.0143 18.1799 23.1069 18.2019L23.2458 17.7607C23.1532 17.7386 23.0143 17.7386 22.9217 17.7386ZM16.7167 18.8417C16.7167 19.4815 17.1797 19.9448 17.8975 19.9448C18.2216 19.9448 18.4531 19.8787 18.6846 19.7022L18.4531 19.3271C18.2679 19.4595 18.0827 19.5256 17.8743 19.5256C17.4807 19.5256 17.2029 19.2609 17.2029 18.8417C17.2029 18.4446 17.4807 18.1798 17.8743 18.1578C18.0827 18.1578 18.2679 18.2239 18.4531 18.3564L18.6846 17.9813C18.4531 17.8047 18.2216 17.7386 17.8975 17.7386C17.1797 17.7386 16.7167 18.2019 16.7167 18.8417ZM21.2084 18.8417V17.7827H20.7222V18.0475C20.56 17.849 20.3285 17.7386 20.0275 17.7386C19.4024 17.7386 18.9162 18.2019 18.9162 18.8417C18.9162 19.4815 19.4024 19.9448 20.0275 19.9448C20.3516 19.9448 20.5833 19.8346 20.7222 19.636V19.9007H21.2084V18.8417ZM19.4255 18.8417C19.4255 18.4666 19.6802 18.1578 20.0969 18.1578C20.4905 18.1578 20.7685 18.4446 20.7685 18.8417C20.7685 19.2168 20.4905 19.5256 20.0969 19.5256C19.6802 19.5035 19.4255 19.2168 19.4255 18.8417ZM13.6142 17.7386C12.9659 17.7386 12.5028 18.1798 12.5028 18.8417C12.5028 19.5036 12.9658 19.9448 13.6373 19.9448C13.9614 19.9448 14.2856 19.8566 14.5403 19.6581L14.3087 19.3271C14.1235 19.4595 13.892 19.5477 13.6605 19.5477C13.3595 19.5477 13.0585 19.4154 12.989 19.0402H14.6329V18.8638C14.6561 18.1798 14.2393 17.7386 13.6141 17.7386H13.6142ZM13.6142 18.1357C13.9151 18.1357 14.1236 18.3123 14.1698 18.6432H13.0122C13.0585 18.3564 13.2669 18.1357 13.6142 18.1357ZM25.6769 18.8417V16.9443H25.1907V18.0475C25.0285 17.849 24.797 17.7386 24.496 17.7386C23.8709 17.7386 23.3847 18.2019 23.3847 18.8417C23.3847 19.4815 23.8709 19.9448 24.496 19.9448C24.8202 19.9448 25.0517 19.8346 25.1907 19.636V19.9007H25.6769V18.8417ZM23.8941 18.8417C23.8941 18.4666 24.1487 18.1578 24.5655 18.1578C24.9591 18.1578 25.237 18.4446 25.237 18.8417C25.237 19.2168 24.9591 19.5256 24.5655 19.5256C24.1487 19.5035 23.8941 19.2168 23.8941 18.8417ZM7.64065 18.8417V17.7827H7.15444V18.0475C6.99234 17.849 6.76083 17.7386 6.45982 17.7386C5.83471 17.7386 5.3485 18.2019 5.3485 18.8417C5.3485 19.4815 5.83471 19.9448 6.45982 19.9448C6.78404 19.9448 7.01554 19.8346 7.15444 19.636V19.9007H7.64065V18.8417ZM5.83471 18.8417C5.83471 18.4666 6.08942 18.1578 6.50612 18.1578C6.89973 18.1578 7.17764 18.4446 7.17764 18.8417C7.17764 19.2168 6.89973 19.5256 6.50612 19.5256C6.08942 19.5035 5.83471 19.2168 5.83471 18.8417Z" fill="white"/>
<path d="M9.83984 1.69873H17.133V14.1863H9.83984V1.69873Z" fill="white"/>
<path d="M10.3031 7.94261C10.3031 5.40543 11.5534 3.15497 13.475 1.69879C12.0628 0.639799 10.28 0 8.3352 0C3.72758 0 0 3.55206 0 7.94261C0 12.3331 3.72758 15.8852 8.33509 15.8852C10.2799 15.8852 12.0627 15.2454 13.475 14.1863C11.5534 12.7523 10.3031 10.4798 10.3031 7.94261Z" fill="white"/>
<path d="M26.9731 7.94261C26.9731 12.3331 23.2455 15.8852 18.638 15.8852C16.6931 15.8852 14.9104 15.2454 13.498 14.1863C15.4429 12.7303 16.67 10.4798 16.67 7.94261C16.67 5.40543 15.4197 3.15497 13.498 1.69879C14.9103 0.639799 16.6931 0 18.638 0C23.2455 0 26.9732 3.57417 26.9732 7.94261H26.9731Z" fill="white"/>
</svg>
