<svg width="44" height="44" viewBox="0 0 44 44" fill="none" xmlns="http://www.w3.org/2000/svg">
<rect width="44" height="44" fill="black"/>
<circle cx="22.0003" cy="22" r="18.3333" fill="#38D8C4"/>
<path fill-rule="evenodd" clip-rule="evenodd" d="M33 14.9496C32.1912 15.3089 31.3208 15.5509 30.4078 15.6602C31.3398 15.1014 32.0555 14.217 32.3921 13.1633C31.521 13.681 30.5538 14.0557 29.5264 14.2588C28.703 13.3818 27.529 12.8333 26.2318 12.8333C23.7393 12.8333 21.7184 14.8543 21.7184 17.3467C21.7184 17.7002 21.7587 18.0448 21.8357 18.3755C18.0843 18.1878 14.7588 16.3905 12.5326 13.6598C12.1439 14.3263 11.9217 15.1014 11.9217 15.9285C11.9217 17.4941 12.7174 18.8756 13.9295 19.6852C13.1889 19.6617 12.4937 19.4586 11.8843 19.1205V19.177C11.8843 21.3644 13.4411 23.1881 15.5046 23.6038C15.1262 23.7065 14.7273 23.7622 14.3159 23.7622C14.0248 23.7622 13.7417 23.7336 13.466 23.6808C14.0402 25.4737 15.7077 26.779 17.6824 26.8156C16.1381 28.0255 14.192 28.7478 12.0772 28.7478C11.712 28.7478 11.3527 28.7265 11 28.684C12.9975 29.9643 15.3696 30.7123 17.9185 30.7123C26.2201 30.7123 30.7598 23.8348 30.7598 17.871C30.7598 17.6752 30.7562 17.4802 30.7466 17.2873C31.6295 16.6494 32.395 15.8545 33 14.9496Z" fill="black"/>
</svg>
