<svg width="45" height="14" viewBox="0 0 45 14" fill="none" xmlns="http://www.w3.org/2000/svg">
<path d="M23.2729 4.45783C23.2472 6.40028 25.077 7.48419 26.4553 8.12869C27.8713 8.7899 28.347 9.21395 28.3414 9.80532C28.3308 10.7103 27.2118 11.1097 26.1647 11.1252C24.3378 11.1524 23.2755 10.6519 22.4311 10.2734L21.773 13.2284C22.6202 13.603 24.1891 13.9298 25.8159 13.9441C29.6348 13.9441 32.1332 12.1352 32.1467 9.33067C32.1616 5.7713 27.016 5.57428 27.0512 3.98334C27.0633 3.50093 27.543 2.98614 28.5942 2.85525C29.1145 2.78913 30.5508 2.73853 32.1792 3.45809L32.8184 0.599055C31.9426 0.293079 30.8171 9.15527e-05 29.4158 9.15527e-05C25.8214 9.15527e-05 23.2933 1.83358 23.2729 4.45783ZM38.9598 0.246356C38.2625 0.246356 37.6748 0.636669 37.4126 1.23563L31.9576 13.7341H35.7736L36.533 11.7203H41.1961L41.6366 13.7341H45L42.065 0.246356H38.9598ZM39.4937 3.8899L40.5949 8.95469H37.5789L39.4937 3.8899ZM18.6462 0.246525L15.6382 13.7339H19.2746L22.2812 0.246187H18.6462V0.246525ZM13.2667 0.246187L9.48182 9.42665L7.95076 1.62089C7.77111 0.749513 7.06166 0.246356 6.27381 0.246356H0.0866602L0 0.638019C1.2702 0.9025 2.71336 1.32908 3.5877 1.78551C4.12277 2.06433 4.27535 2.30807 4.45113 2.97062L7.351 13.7341H11.1938L17.0852 0.246356H13.2667" fill="url(#paint0_linear_363_5565)"/>
<defs>
<linearGradient id="paint0_linear_363_5565" x1="20.6883" y1="14.2238" x2="21.0756" y2="-0.0977846" gradientUnits="userSpaceOnUse">
<stop stop-color="white"/>
<stop offset="1" stop-color="white"/>
</linearGradient>
</defs>
</svg>
