<svg width="124" height="124" viewBox="0 0 124 124" fill="none" xmlns="http://www.w3.org/2000/svg">
<path d="M61.7137 123.125C95.578 123.125 123.032 95.5834 123.032 61.6042C123.032 27.625 95.578 0.083374 61.7137 0.083374C27.8494 0.083374 0.375 27.625 0.375 61.6042C0.375 95.5834 27.8286 123.125 61.7137 123.125Z" fill="#DF0000"/>
<path d="M98.8875 45.6875V77.5C98.8875 78.6042 97.9925 79.5209 96.8893 79.5209C95.7862 79.5209 94.8912 78.625 94.8912 77.5V45.6875C94.8912 41.9375 91.8524 38.875 88.1059 38.875C84.3593 38.875 81.3205 41.9375 81.3205 45.6875V77.5C81.3205 83.4792 76.4709 88.3334 70.5181 88.3334C64.5653 88.3334 59.7156 83.4792 59.7156 77.5V45.6875C59.7156 41.9375 56.6768 38.875 52.9303 38.875C49.1838 38.875 46.1449 41.9375 46.1449 45.6875V77.5C46.1449 83.4792 41.2953 88.3334 35.3425 88.3334C29.3897 88.3334 24.54 83.4792 24.54 77.5V45.6875C24.54 44.5834 25.435 43.6667 26.5382 43.6667C27.6413 43.6667 28.5363 44.5625 28.5363 45.6875V77.5C28.5363 81.25 31.5752 84.3125 35.3217 84.3125C39.0682 84.3125 42.107 81.25 42.107 77.5V45.6875C42.107 39.7084 46.9567 34.8542 52.9095 34.8542C58.8622 34.8542 63.7119 39.7084 63.7119 45.6875V77.5C63.7119 81.25 66.7507 84.3125 70.4972 84.3125C74.2438 84.3125 77.2826 81.25 77.2826 77.5V45.6875C77.2826 39.7084 82.1322 34.8542 88.085 34.8542C94.0378 34.8542 98.8875 39.7292 98.8875 45.6875Z" fill="#020203"/>
</svg>
